<svg width="5" height="16" viewBox="0 0 5 16" fill="none" xmlns="http://www.w3.org/2000/svg">
<path d="M0.234375 0H4.23438V16H0.234375V0Z" stroke="#E5E7EB"/>
<g clip-path="url(#clip0_14_613)">
<g clip-path="url(#clip1_14_613)">
<path d="M2.23438 11.25C1.77025 11.25 1.32513 11.4344 0.996938 11.7626C0.668749 12.0908 0.484375 12.5359 0.484375 13C0.484375 13.4641 0.668749 13.9092 0.996938 14.2374C1.32513 14.5656 1.77025 14.75 2.23438 14.75C2.6985 14.75 3.14362 14.5656 3.47181 14.2374C3.8 13.9092 3.98438 13.4641 3.98438 13C3.98438 12.5359 3.8 12.0908 3.47181 11.7626C3.14362 11.4344 2.6985 11.25 2.23438 11.25ZM2.23438 6.25C1.77025 6.25 1.32513 6.43437 0.996938 6.76256C0.668749 7.09075 0.484375 7.53587 0.484375 8C0.484375 8.46413 0.668749 8.90925 0.996938 9.23744C1.32513 9.56563 1.77025 9.75 2.23438 9.75C2.6985 9.75 3.14362 9.56563 3.47181 9.23744C3.8 8.90925 3.98438 8.46413 3.98438 8C3.98438 7.53587 3.8 7.09075 3.47181 6.76256C3.14362 6.43437 2.6985 6.25 2.23438 6.25ZM3.98438 3C3.98438 2.53587 3.8 2.09075 3.47181 1.76256C3.14362 1.43437 2.6985 1.25 2.23438 1.25C1.77025 1.25 1.32513 1.43437 0.996938 1.76256C0.668749 2.09075 0.484375 2.53587 0.484375 3C0.484375 3.46413 0.668749 3.90925 0.996938 4.23744C1.32513 4.56563 1.77025 4.75 2.23438 4.75C2.6985 4.75 3.14362 4.56563 3.47181 4.23744C3.8 3.90925 3.98438 3.46413 3.98438 3Z" fill="#9CA3AF"/>
</g>
</g>
<defs>
<clipPath id="clip0_14_613">
<rect width="4" height="16" fill="white" transform="translate(0.234375)"/>
</clipPath>
<clipPath id="clip1_14_613">
<path d="M0.234375 0H4.23438V16H0.234375V0Z" fill="white"/>
</clipPath>
</defs>
</svg>
