<svg width="44" height="40" viewBox="0 0 44 40" fill="none" xmlns="http://www.w3.org/2000/svg">
<path d="M0 20C0 8.95431 8.95431 0 20 0H24C35.0457 0 44 8.95431 44 20C44 31.0457 35.0457 40 24 40H20C8.9543 40 0 31.0457 0 20Z" fill="#FEE2E2"/>
<path d="M0 20C0 8.95431 8.95431 0 20 0H24C35.0457 0 44 8.95431 44 20C44 31.0457 35.0457 40 24 40H20C8.9543 40 0 31.0457 0 20Z" stroke="#E5E7EB"/>
<path d="M12 9H32V32H12V9Z" stroke="#E5E7EB"/>
<g clip-path="url(#clip0_14_500)">
<path d="M15 16C15 14.9391 15.4214 13.9217 16.1716 13.1716C16.9217 12.4214 17.9391 12 19 12C20.0609 12 21.0783 12.4214 21.8284 13.1716C22.5786 13.9217 23 14.9391 23 16C23 17.0609 22.5786 18.0783 21.8284 18.8284C21.0783 19.5786 20.0609 20 19 20C17.9391 20 16.9217 19.5786 16.1716 18.8284C15.4214 18.0783 15 17.0609 15 16ZM12 27.0719C12 23.9937 14.4938 21.5 17.5719 21.5H20.4281C23.5063 21.5 26 23.9937 26 27.0719C26 27.5844 25.5844 28 25.0719 28H12.9281C12.4156 28 12 27.5844 12 27.0719ZM26.7188 16.4688C27.0125 16.175 27.4875 16.175 27.7781 16.4688L29.2469 17.9375L30.7156 16.4688C31.0094 16.175 31.4844 16.175 31.775 16.4688C32.0656 16.7625 32.0688 17.2375 31.775 17.5281L30.3062 18.9969L31.775 20.4656C32.0688 20.7594 32.0688 21.2344 31.775 21.525C31.4812 21.8156 31.0063 21.8187 30.7156 21.525L29.2469 20.0562L27.7781 21.525C27.4844 21.8187 27.0094 21.8187 26.7188 21.525C26.4281 21.2312 26.425 20.7562 26.7188 20.4656L28.1875 18.9969L26.7188 17.5281C26.425 17.2344 26.425 16.7594 26.7188 16.4688Z" fill="#DC2626"/>
</g>
<defs>
<clipPath id="clip0_14_500">
<path d="M12 12H32V28H12V12Z" fill="white"/>
</clipPath>
</defs>
</svg>
