<svg width="17" height="16" viewBox="0 0 17 16" fill="none" xmlns="http://www.w3.org/2000/svg">
<g clip-path="url(#clip0_14_541)">
<path d="M9.85938 1C9.85938 0.446875 9.4125 0 8.85938 0C8.30625 0 7.85938 0.446875 7.85938 1V8.58438L5.56563 6.29063C5.175 5.9 4.54063 5.9 4.15 6.29063C3.75938 6.68125 3.75938 7.31563 4.15 7.70625L8.15 11.7063C8.54063 12.0969 9.175 12.0969 9.56563 11.7063L13.5656 7.70625C13.9563 7.31563 13.9563 6.68125 13.5656 6.29063C13.175 5.9 12.5406 5.9 12.15 6.29063L9.85938 8.58438V1ZM2.85938 11C1.75625 11 0.859375 11.8969 0.859375 13V14C0.859375 15.1031 1.75625 16 2.85938 16H14.8594C15.9625 16 16.8594 15.1031 16.8594 14V13C16.8594 11.8969 15.9625 11 14.8594 11H11.6875L10.2719 12.4156C9.49063 13.1969 8.225 13.1969 7.44375 12.4156L6.03125 11H2.85938ZM14.3594 12.75C14.5583 12.75 14.7491 12.829 14.8897 12.9697C15.0304 13.1103 15.1094 13.3011 15.1094 13.5C15.1094 13.6989 15.0304 13.8897 14.8897 14.0303C14.7491 14.171 14.5583 14.25 14.3594 14.25C14.1605 14.25 13.9697 14.171 13.829 14.0303C13.6884 13.8897 13.6094 13.6989 13.6094 13.5C13.6094 13.3011 13.6884 13.1103 13.829 12.9697C13.9697 12.829 14.1605 12.75 14.3594 12.75Z" fill="white"/>
</g>
<defs>
<clipPath id="clip0_14_541">
<path d="M0.859375 0H16.8594V16H0.859375V0Z" fill="white"/>
</clipPath>
</defs>
</svg>
