<svg width="16" height="23" viewBox="0 0 16 23" fill="none" xmlns="http://www.w3.org/2000/svg">
<path d="M0 0H16V23H0V0Z" stroke="#E5E7EB"/>
<g clip-path="url(#clip0_14_566)">
<path d="M4.46562 7.46564C6.40937 5.52189 9.55 5.51251 11.5063 7.43439L10.2188 8.71876C10.0031 8.93438 9.94062 9.25626 10.0562 9.53751C10.1719 9.81876 10.4469 10 10.75 10H14.4844H14.75C15.1656 10 15.5 9.66564 15.5 9.25001V5.25001C15.5 4.94689 15.3188 4.67189 15.0375 4.55626C14.7563 4.44064 14.4344 4.50314 14.2188 4.71876L12.9187 6.01876C10.1812 3.31564 5.77187 3.32501 3.05 6.05001C2.2875 6.81251 1.7375 7.70938 1.4 8.66876C1.21562 9.19063 1.49063 9.75939 2.00938 9.94376C2.52813 10.1281 3.1 9.85314 3.28437 9.33438C3.525 8.65313 3.91562 8.01251 4.46562 7.46564ZM0.5 12.75V12.9875V13.0094V16.75C0.5 17.0531 0.68125 17.3281 0.9625 17.4438C1.24375 17.5594 1.56562 17.4969 1.78125 17.2813L3.08125 15.9813C5.81875 18.6844 10.2281 18.675 12.95 15.95C13.7125 15.1875 14.2656 14.2906 14.6031 13.3344C14.7875 12.8125 14.5125 12.2438 13.9937 12.0594C13.475 11.875 12.9031 12.15 12.7188 12.6688C12.4781 13.35 12.0875 13.9906 11.5375 14.5375C9.59375 16.4813 6.45312 16.4906 4.49687 14.5688L5.78125 13.2813C5.99687 13.0656 6.05937 12.7438 5.94375 12.4625C5.82812 12.1813 5.55312 12 5.25 12H1.5125H1.49063H1.25C0.834375 12 0.5 12.3344 0.5 12.75Z" fill="#4B5563"/>
</g>
<defs>
<clipPath id="clip0_14_566">
<path d="M0 3H16V19H0V3Z" fill="white"/>
</clipPath>
</defs>
</svg>
