<svg width="17" height="16" viewBox="0 0 17 16" fill="none" xmlns="http://www.w3.org/2000/svg">
<g clip-path="url(#clip0_14_520)">
<path d="M12.45 3.30938L16.2875 7.14687C16.5125 7.37187 16.6406 7.68125 16.6406 8C16.6406 8.31875 16.5125 8.62812 16.2875 8.85312L12.45 12.6906C12.25 12.8906 11.9812 13 11.7 13C11.1156 13 10.6406 12.525 10.6406 11.9406V10H6.64062C6.0875 10 5.64062 9.55313 5.64062 9V7C5.64062 6.44688 6.0875 6 6.64062 6H10.6406V4.05937C10.6406 3.475 11.1156 3 11.7 3C11.9812 3 12.25 3.1125 12.45 3.30938ZM5.64062 3H3.64062C3.0875 3 2.64062 3.44688 2.64062 4V12C2.64062 12.5531 3.0875 13 3.64062 13H5.64062C6.19375 13 6.64062 13.4469 6.64062 14C6.64062 14.5531 6.19375 15 5.64062 15H3.64062C1.98438 15 0.640625 13.6562 0.640625 12V4C0.640625 2.34375 1.98438 1 3.64062 1H5.64062C6.19375 1 6.64062 1.44687 6.64062 2C6.64062 2.55313 6.19375 3 5.64062 3Z" fill="white"/>
</g>
<defs>
<clipPath id="clip0_14_520">
<path d="M0.640625 0H16.6406V16H0.640625V0Z" fill="white"/>
</clipPath>
</defs>
</svg>
