<svg width="20" height="16" viewBox="0 0 20 16" fill="none" xmlns="http://www.w3.org/2000/svg">
<g clip-path="url(#clip0_14_476)">
<path d="M3 4C3 2.93913 3.42143 1.92172 4.17157 1.17157C4.92172 0.421427 5.93913 0 7 0C8.06087 0 9.07828 0.421427 9.82843 1.17157C10.5786 1.92172 11 2.93913 11 4C11 5.06087 10.5786 6.07828 9.82843 6.82843C9.07828 7.57857 8.06087 8 7 8C5.93913 8 4.92172 7.57857 4.17157 6.82843C3.42143 6.07828 3 5.06087 3 4ZM0 15.0719C0 11.9937 2.49375 9.5 5.57188 9.5H8.42813C11.5063 9.5 14 11.9937 14 15.0719C14 15.5844 13.5844 16 13.0719 16H0.928125C0.415625 16 0 15.5844 0 15.0719ZM19.5312 5.53125L15.5312 9.53125C15.2375 9.825 14.7625 9.825 14.4719 9.53125L12.4719 7.53125C12.1781 7.2375 12.1781 6.7625 12.4719 6.47188C12.7656 6.18125 13.2406 6.17813 13.5312 6.47188L15 7.94063L18.4688 4.46875C18.7625 4.175 19.2375 4.175 19.5281 4.46875C19.8188 4.7625 19.8219 5.2375 19.5281 5.52812L19.5312 5.53125Z" fill="#D1D5DB"/>
</g>
<defs>
<clipPath id="clip0_14_476">
<path d="M0 0H20V16H0V0Z" fill="white"/>
</clipPath>
</defs>
</svg>
