<svg width="45" height="40" viewBox="0 0 45 40" fill="none" xmlns="http://www.w3.org/2000/svg">
<path d="M0.65625 20C0.65625 8.95431 9.61056 0 20.6562 0H24.6562C35.7019 0 44.6562 8.95431 44.6562 20C44.6562 31.0457 35.7019 40 24.6562 40H20.6562C9.61055 40 0.65625 31.0457 0.65625 20Z" fill="#D1FAE5"/>
<path d="M0.65625 20C0.65625 8.95431 9.61056 0 20.6562 0H24.6562C35.7019 0 44.6562 8.95431 44.6562 20C44.6562 31.0457 35.7019 40 24.6562 40H20.6562C9.61055 40 0.65625 31.0457 0.65625 20Z" stroke="#E5E7EB"/>
<path d="M12.6562 9H32.6562V32H12.6562V9Z" stroke="#E5E7EB"/>
<g clip-path="url(#clip0_14_498)">
<path d="M15.6562 16C15.6562 14.9391 16.0777 13.9217 16.8278 13.1716C17.578 12.4214 18.5954 12 19.6562 12C20.7171 12 21.7345 12.4214 22.4847 13.1716C23.2348 13.9217 23.6562 14.9391 23.6562 16C23.6562 17.0609 23.2348 18.0783 22.4847 18.8284C21.7345 19.5786 20.7171 20 19.6562 20C18.5954 20 17.578 19.5786 16.8278 18.8284C16.0777 18.0783 15.6562 17.0609 15.6562 16ZM12.6562 27.0719C12.6562 23.9937 15.15 21.5 18.2281 21.5H21.0844C24.1625 21.5 26.6562 23.9937 26.6562 27.0719C26.6562 27.5844 26.2406 28 25.7281 28H13.5844C13.0719 28 12.6562 27.5844 12.6562 27.0719ZM32.1875 17.5312L28.1875 21.5312C27.8938 21.825 27.4187 21.825 27.1281 21.5312L25.1281 19.5312C24.8344 19.2375 24.8344 18.7625 25.1281 18.4719C25.4219 18.1813 25.8969 18.1781 26.1875 18.4719L27.6562 19.9406L31.125 16.4688C31.4188 16.175 31.8938 16.175 32.1844 16.4688C32.475 16.7625 32.4781 17.2375 32.1844 17.5281L32.1875 17.5312Z" fill="#059669"/>
</g>
<defs>
<clipPath id="clip0_14_498">
<path d="M12.6562 12H32.6562V28H12.6562V12Z" fill="white"/>
</clipPath>
</defs>
</svg>
