<svg width="17" height="23" viewBox="0 0 17 23" fill="none" xmlns="http://www.w3.org/2000/svg">
<path d="M0.09375 0H16.0938V23H0.09375V0Z" stroke="#E5E7EB"/>
<g clip-path="url(#clip0_14_569)">
<path d="M4.09375 3C2.99062 3 2.09375 3.89688 2.09375 5V8H4.09375V5H11.1781L12.0938 5.91563V8H14.0938V5.91563C14.0938 5.38438 13.8844 4.875 13.5094 4.5L12.5938 3.58438C12.2188 3.20938 11.7094 3 11.1781 3H4.09375ZM12.0938 14V15V17H4.09375V15V14.5V14H12.0938ZM14.0938 15H15.0938C15.6469 15 16.0938 14.5531 16.0938 14V11C16.0938 9.89687 15.1969 9 14.0938 9H2.09375C0.990625 9 0.09375 9.89687 0.09375 11V14C0.09375 14.5531 0.540625 15 1.09375 15H2.09375V17C2.09375 18.1031 2.99062 19 4.09375 19H12.0938C13.1969 19 14.0938 18.1031 14.0938 17V15ZM13.5938 10.75C13.7927 10.75 13.9834 10.829 14.1241 10.9697C14.2647 11.1103 14.3438 11.3011 14.3438 11.5C14.3438 11.6989 14.2647 11.8897 14.1241 12.0303C13.9834 12.171 13.7927 12.25 13.5938 12.25C13.3948 12.25 13.2041 12.171 13.0634 12.0303C12.9228 11.8897 12.8438 11.6989 12.8438 11.5C12.8438 11.3011 12.9228 11.1103 13.0634 10.9697C13.2041 10.829 13.3948 10.75 13.5938 10.75Z" fill="#4B5563"/>
</g>
<defs>
<clipPath id="clip0_14_569">
<path d="M0.09375 3H16.0938V19H0.09375V3Z" fill="white"/>
</clipPath>
</defs>
</svg>
