<svg width="32" height="32" viewBox="0 0 32 32" fill="none" xmlns="http://www.w3.org/2000/svg">
<path d="M0 8C0 3.58172 3.58172 0 8 0H24C28.4183 0 32 3.58172 32 8V24C32 28.4183 28.4183 32 24 32H8C3.58172 32 0 28.4183 0 24V8Z" fill="#F3F4F6"/>
<path d="M0 8C0 3.58172 3.58172 0 8 0H24C28.4183 0 32 3.58172 32 8V24C32 28.4183 28.4183 32 24 32H8C3.58172 32 0 28.4183 0 24V8Z" stroke="#E5E7EB"/>
<path d="M8 5H24V28H8V5Z" stroke="#E5E7EB"/>
<path d="M8 8H24V24H8V8Z" stroke="#E5E7EB"/>
<path d="M8.12196 9.71563C8.32821 9.27813 8.76571 9 9.25008 9H22.7501C23.2345 9 23.672 9.27813 23.8782 9.71563C24.0845 10.1531 24.022 10.6688 23.7157 11.0438L18.0001 18.0281V22C18.0001 22.3781 17.7876 22.725 17.447 22.8938C17.1063 23.0625 16.7032 23.0281 16.4001 22.8L14.4001 21.3C14.147 21.1125 14.0001 20.8156 14.0001 20.5V18.0281L8.28133 11.0406C7.97821 10.6688 7.91258 10.15 8.12196 9.71563Z" fill="#4B5563"/>
</svg>
