<svg width="32" height="32" viewBox="0 0 32 32" fill="none" xmlns="http://www.w3.org/2000/svg">
<path d="M0 8C0 3.58172 3.58172 0 8 0H24C28.4183 0 32 3.58172 32 8V24C32 28.4183 28.4183 32 24 32H8C3.58172 32 0 28.4183 0 24V8Z" fill="#F3F4F6"/>
<path d="M0 8C0 3.58172 3.58172 0 8 0H24C28.4183 0 32 3.58172 32 8V24C32 28.4183 28.4183 32 24 32H8C3.58172 32 0 28.4183 0 24V8Z" stroke="#E5E7EB"/>
<path d="M8 5H24V28H8V5Z" stroke="#E5E7EB"/>
<g clip-path="url(#clip0_14_510)">
<path d="M17 9C17 8.44687 16.5531 8 16 8C15.4469 8 15 8.44687 15 9V16.5844L12.7063 14.2906C12.3156 13.9 11.6813 13.9 11.2906 14.2906C10.9 14.6813 10.9 15.3156 11.2906 15.7063L15.2906 19.7063C15.6813 20.0969 16.3156 20.0969 16.7063 19.7063L20.7063 15.7063C21.0969 15.3156 21.0969 14.6813 20.7063 14.2906C20.3156 13.9 19.6812 13.9 19.2906 14.2906L17 16.5844V9ZM10 19C8.89688 19 8 19.8969 8 21V22C8 23.1031 8.89688 24 10 24H22C23.1031 24 24 23.1031 24 22V21C24 19.8969 23.1031 19 22 19H18.8281L17.4125 20.4156C16.6313 21.1969 15.3656 21.1969 14.5844 20.4156L13.1719 19H10ZM21.5 20.75C21.6989 20.75 21.8897 20.829 22.0303 20.9697C22.171 21.1103 22.25 21.3011 22.25 21.5C22.25 21.6989 22.171 21.8897 22.0303 22.0303C21.8897 22.171 21.6989 22.25 21.5 22.25C21.3011 22.25 21.1103 22.171 20.9697 22.0303C20.829 21.8897 20.75 21.6989 20.75 21.5C20.75 21.3011 20.829 21.1103 20.9697 20.9697C21.1103 20.829 21.3011 20.75 21.5 20.75Z" fill="#4B5563"/>
</g>
<defs>
<clipPath id="clip0_14_510">
<path d="M8 8H24V24H8V8Z" fill="white"/>
</clipPath>
</defs>
</svg>
