<svg width="16" height="14" viewBox="0 0 16 14" fill="none" xmlns="http://www.w3.org/2000/svg">
<path d="M1 0C1.55313 0 2 0.446875 2 1V11.5C2 11.775 2.225 12 2.5 12H15C15.5531 12 16 12.4469 16 13C16 13.5531 15.5531 14 15 14H2.5C1.11875 14 0 12.8813 0 11.5V1C0 0.446875 0.446875 0 1 0ZM4 3C4 2.44688 4.44688 2 5 2H11C11.5531 2 12 2.44688 12 3C12 3.55312 11.5531 4 11 4H5C4.44688 4 4 3.55312 4 3ZM5 5H9C9.55313 5 10 5.44688 10 6C10 6.55312 9.55313 7 9 7H5C4.44688 7 4 6.55312 4 6C4 5.44688 4.44688 5 5 5ZM5 8H13C13.5531 8 14 8.44687 14 9C14 9.55313 13.5531 10 13 10H5C4.44688 10 4 9.55313 4 9C4 8.44687 4.44688 8 5 8Z" fill="#D1D5DB"/>
</svg>
