<svg width="45" height="40" viewBox="0 0 45 40" fill="none" xmlns="http://www.w3.org/2000/svg">
<path d="M0.328125 20C0.328125 8.95431 9.28243 0 20.3281 0H24.3281C35.3738 0 44.3281 8.95431 44.3281 20C44.3281 31.0457 35.3738 40 24.3281 40H20.3281C9.28243 40 0.328125 31.0457 0.328125 20Z" fill="#DBEAFE"/>
<path d="M0.328125 20C0.328125 8.95431 9.28243 0 20.3281 0H24.3281C35.3738 0 44.3281 8.95431 44.3281 20C44.3281 31.0457 35.3738 40 24.3281 40H20.3281C9.28243 40 0.328125 31.0457 0.328125 20Z" stroke="#E5E7EB"/>
<path d="M12.3281 9H32.3281V32H12.3281V9Z" stroke="#E5E7EB"/>
<g clip-path="url(#clip0_14_496)">
<path d="M16.8281 12C17.4912 12 18.1271 12.2634 18.5959 12.7322C19.0647 13.2011 19.3281 13.837 19.3281 14.5C19.3281 15.163 19.0647 15.7989 18.5959 16.2678C18.1271 16.7366 17.4912 17 16.8281 17C16.1651 17 15.5292 16.7366 15.0604 16.2678C14.5915 15.7989 14.3281 15.163 14.3281 14.5C14.3281 13.837 14.5915 13.2011 15.0604 12.7322C15.5292 12.2634 16.1651 12 16.8281 12ZM28.3281 12C28.9912 12 29.6271 12.2634 30.0959 12.7322C30.5647 13.2011 30.8281 13.837 30.8281 14.5C30.8281 15.163 30.5647 15.7989 30.0959 16.2678C29.6271 16.7366 28.9912 17 28.3281 17C27.6651 17 27.0292 16.7366 26.5604 16.2678C26.0915 15.7989 25.8281 15.163 25.8281 14.5C25.8281 13.837 26.0915 13.2011 26.5604 12.7322C27.0292 12.2634 27.6651 12 28.3281 12ZM12.3281 21.3344C12.3281 19.4938 13.8219 18 15.6625 18H16.9969C17.4937 18 17.9656 18.1094 18.3906 18.3031C18.35 18.5281 18.3313 18.7625 18.3313 19C18.3313 20.1938 18.8562 21.2656 19.6844 22C19.6781 22 19.6719 22 19.6625 22H12.9937C12.6281 22 12.3281 21.7 12.3281 21.3344ZM24.9937 22C24.9875 22 24.9812 22 24.9719 22C25.8031 21.2656 26.325 20.1938 26.325 19C26.325 18.7625 26.3031 18.5312 26.2656 18.3031C26.6906 18.1062 27.1625 18 27.6594 18H28.9937C30.8344 18 32.3281 19.4938 32.3281 21.3344C32.3281 21.7031 32.0281 22 31.6625 22H24.9937ZM19.3281 19C19.3281 18.2044 19.6442 17.4413 20.2068 16.8787C20.7694 16.3161 21.5325 16 22.3281 16C23.1238 16 23.8868 16.3161 24.4494 16.8787C25.0121 17.4413 25.3281 18.2044 25.3281 19C25.3281 19.7956 25.0121 20.5587 24.4494 21.1213C23.8868 21.6839 23.1238 22 22.3281 22C21.5325 22 20.7694 21.6839 20.2068 21.1213C19.6442 20.5587 19.3281 19.7956 19.3281 19ZM16.3281 27.1656C16.3281 24.8656 18.1937 23 20.4937 23H24.1625C26.4625 23 28.3281 24.8656 28.3281 27.1656C28.3281 27.625 27.9562 28 27.4937 28H17.1625C16.7031 28 16.3281 27.6281 16.3281 27.1656Z" fill="#2563EB"/>
</g>
<defs>
<clipPath id="clip0_14_496">
<path d="M12.3281 12H32.3281V28H12.3281V12Z" fill="white"/>
</clipPath>
</defs>
</svg>
